<svg xmlns="http://www.w3.org/2000/svg" xmlns:xlink="http://www.w3.org/1999/xlink" width="867" zoomAndPan="magnify" viewBox="0 0 650.25 597.749982" height="797" preserveAspectRatio="xMidYMid meet" version="1.0"><defs><g/><clipPath id="db03ddec30"><path d="M 1 2 L 649.5 2 L 649.5 449 L 1 449 Z M 1 2 " clip-rule="nonzero"/></clipPath></defs><path fill="#212121" d="M 331.089844 265.246094 C 327.011719 265.246094 322.988281 264.609375 318.992188 263.3125 L 133.582031 201.472656 C 130.21875 210.210938 128.539062 221.464844 128.539062 237.894531 C 140.636719 244.898438 152.429688 258.980469 152.429688 283.253906 C 152.429688 298.125 144.992188 308.824219 138.597656 315.929688 C 166.105469 347.839844 241.796875 370.785156 331.113281 370.785156 C 443.660156 370.785156 534.859375 334.367188 534.859375 289.519531 C 534.859375 279.609375 534.859375 239.140625 534.859375 199.410156 L 343.132812 263.3125 C 339.1875 264.609375 335.164062 265.246094 331.089844 265.246094 Z M 331.089844 265.246094 " fill-opacity="1" fill-rule="nonzero"/><g clip-path="url(#db03ddec30)"><path fill="#212121" d="M 640.730469 104.847656 L 335.113281 2.972656 C 332.464844 2.109375 329.6875 2.109375 327.0625 2.972656 L 21.445312 104.847656 C 16.25 106.578125 12.734375 111.441406 12.734375 116.917969 C 12.734375 122.394531 16.25 127.257812 21.445312 128.992188 L 91.507812 152.34375 C 75.386719 171.039062 66.015625 197.398438 62.574219 240.289062 C 51.496094 245.507812 43.679688 256.636719 43.679688 269.730469 C 43.679688 283.046875 51.675781 294.382812 63.085938 299.5 C 53.125 386.222656 1.195312 415.128906 1.195312 422.539062 C 1.195312 426.308594 41.410156 448.007812 50.960938 448.007812 C 65.734375 448.007812 101.1875 422.945312 101.1875 368.824219 C 101.1875 336.941406 98.308594 312.847656 95.277344 295.757812 C 103.453125 289.824219 109.132812 280.628906 109.132812 269.730469 C 109.132812 257.835938 102.484375 247.902344 92.984375 242.171875 C 98.359375 171.394531 120.234375 159.554688 173.160156 137.597656 C 178.457031 135.511719 188.464844 131.460938 194.246094 129.066406 C 204.636719 124.789062 214.035156 120.96875 223.050781 117.351562 C 252.160156 105.789062 276.765625 96.492188 295.535156 89.589844 C 316.085938 82.257812 325.308594 79.582031 325.636719 79.480469 C 333.507812 76.832031 342.269531 81.085938 344.96875 89.105469 C 347.644531 97.105469 343.363281 105.765625 335.339844 108.464844 C 334.730469 108.667969 298.972656 118.878906 205.9375 157.335938 C 199.953125 159.808594 194.246094 162.046875 188.820312 164.1875 C 177.792969 168.542969 168.652344 172.03125 160.984375 175.546875 L 327.0625 230.890625 C 328.386719 231.296875 329.714844 231.527344 331.089844 231.527344 C 332.464844 231.527344 333.789062 231.296875 335.113281 230.863281 L 640.730469 128.992188 C 645.925781 127.257812 649.441406 122.394531 649.441406 116.917969 C 649.441406 111.441406 645.925781 106.578125 640.730469 104.847656 Z M 640.730469 104.847656 " fill-opacity="1" fill-rule="nonzero"/></g><g fill="#212121" fill-opacity="1"><g transform="translate(155.561238, 504.078595)"><g><path d="M 80.6875 -6.5 C 80.6875 -6.5 80.578125 -5.957031 80.359375 -4.875 C 80.140625 -3.789062 79.648438 -2.707031 78.890625 -1.625 C 78.140625 -0.539062 76.953125 0 75.328125 0 C 73.378906 0 71.617188 -0.078125 70.046875 -0.234375 C 68.484375 -0.398438 66.726562 -0.484375 64.78125 -0.484375 C 63.15625 -0.484375 61.691406 -0.425781 60.390625 -0.3125 C 59.085938 -0.207031 57.628906 -0.15625 56.015625 -0.15625 C 54.066406 -0.15625 52.738281 -0.535156 52.03125 -1.296875 C 51.320312 -2.054688 50.941406 -2.921875 50.890625 -3.890625 C 50.835938 -4.867188 50.757812 -5.628906 50.65625 -6.171875 C 50.65625 -6.710938 50.570312 -7.847656 50.40625 -9.578125 C 50.25 -11.304688 50.0625 -13.0625 49.84375 -14.84375 C 49.625 -16.632812 49.242188 -17.75 48.703125 -18.1875 C 48.265625 -18.613281 48.070312 -18.800781 48.125 -18.75 C 48.1875 -18.695312 47.945312 -18.832031 47.40625 -19.15625 C 47.289062 -19.257812 46.015625 -19.335938 43.578125 -19.390625 C 41.148438 -19.453125 39.015625 -19.484375 37.171875 -19.484375 C 34.140625 -19.484375 32.40625 -19.078125 31.96875 -18.265625 C 31.539062 -17.453125 31.164062 -16.125 30.84375 -14.28125 C 30.84375 -13.851562 30.785156 -12.742188 30.671875 -10.953125 C 30.566406 -9.171875 30.40625 -7.410156 30.1875 -5.671875 C 29.976562 -3.941406 29.710938 -2.804688 29.390625 -2.265625 C 28.847656 -1.515625 28.25 -0.972656 27.59375 -0.640625 C 26.945312 -0.316406 25.972656 -0.15625 24.671875 -0.15625 C 23.160156 -0.15625 21.78125 -0.179688 20.53125 -0.234375 C 19.289062 -0.296875 17.910156 -0.328125 16.390625 -0.328125 C 14.773438 -0.328125 13.15625 -0.296875 11.53125 -0.234375 C 9.90625 -0.179688 8.28125 -0.15625 6.65625 -0.15625 C 5.25 -0.15625 3.867188 -0.398438 2.515625 -0.890625 C 1.160156 -1.378906 0.484375 -2.707031 0.484375 -4.875 C 0.484375 -5.519531 0.617188 -6.546875 0.890625 -7.953125 C 1.160156 -9.359375 1.457031 -10.925781 1.78125 -12.65625 C 2.101562 -14.820312 2.347656 -16.71875 2.515625 -18.34375 C 2.679688 -19.96875 2.976562 -21.804688 3.40625 -23.859375 C 3.726562 -25.703125 4.050781 -27.378906 4.375 -28.890625 C 4.707031 -30.410156 5.035156 -32.09375 5.359375 -33.9375 C 5.898438 -36.632812 6.273438 -39.035156 6.484375 -41.140625 C 6.703125 -43.253906 7.03125 -45.664062 7.46875 -48.375 C 7.894531 -51.082031 8.328125 -53.460938 8.765625 -55.515625 C 9.203125 -57.578125 9.582031 -59.960938 9.90625 -62.671875 C 10.125 -64.503906 10.3125 -66.203125 10.46875 -67.765625 C 10.632812 -69.335938 10.878906 -71.097656 11.203125 -73.046875 C 11.628906 -75.210938 12.0625 -77.21875 12.5 -79.0625 C 12.9375 -80.90625 13.367188 -82.90625 13.796875 -85.0625 C 14.441406 -88.53125 14.898438 -91.613281 15.171875 -94.3125 C 15.441406 -97.019531 15.957031 -100.050781 16.71875 -103.40625 C 17.257812 -105.570312 17.828125 -107.570312 18.421875 -109.40625 C 19.015625 -111.25 19.691406 -112.550781 20.453125 -113.3125 C 21.972656 -114.507812 24.351562 -115.109375 27.59375 -115.109375 C 30.40625 -115.109375 32.921875 -115 35.140625 -114.78125 C 37.359375 -114.5625 39.820312 -114.453125 42.53125 -114.453125 C 44.59375 -114.453125 46.648438 -114.476562 48.703125 -114.53125 C 50.753906 -114.582031 52.8125 -114.609375 54.875 -114.609375 L 55.515625 -114.609375 C 57.679688 -114.609375 59.222656 -114.390625 60.140625 -113.953125 C 61.066406 -113.523438 61.910156 -112.609375 62.671875 -111.203125 C 62.878906 -111.097656 63.035156 -110.800781 63.140625 -110.3125 C 63.253906 -109.820312 63.363281 -109.46875 63.46875 -109.25 C 63.46875 -109.25 63.601562 -108.460938 63.875 -106.890625 C 64.144531 -105.328125 64.5 -103.570312 64.9375 -101.625 C 65.375 -99.675781 65.726562 -97.914062 66 -96.34375 C 66.269531 -94.78125 66.40625 -94 66.40625 -94 C 66.832031 -91.394531 67.15625 -89.035156 67.375 -86.921875 C 67.59375 -84.816406 67.914062 -82.46875 68.34375 -79.875 C 68.882812 -76.738281 69.398438 -73.894531 69.890625 -71.34375 C 70.378906 -68.800781 70.945312 -65.960938 71.59375 -62.828125 C 72.132812 -60.335938 72.617188 -58.035156 73.046875 -55.921875 C 73.484375 -53.816406 73.863281 -51.519531 74.1875 -49.03125 C 74.726562 -45.675781 75.078125 -42.671875 75.234375 -40.015625 C 75.398438 -37.367188 75.703125 -34.363281 76.140625 -31 C 76.679688 -27.757812 77.300781 -24.378906 78 -20.859375 C 78.707031 -17.335938 79.332031 -14.25 79.875 -11.59375 C 80.414062 -8.945312 80.6875 -7.25 80.6875 -6.5 Z M 45.78125 -52.921875 C 45.78125 -55.847656 45.585938 -58.742188 45.203125 -61.609375 C 44.828125 -64.472656 44.453125 -66.988281 44.078125 -69.15625 C 43.703125 -71.320312 43.457031 -72.785156 43.34375 -73.546875 C 43.238281 -74.835938 43.101562 -76.1875 42.9375 -77.59375 C 42.78125 -79 42.59375 -79.8125 42.375 -80.03125 C 42.050781 -81.226562 41.507812 -81.828125 40.75 -81.828125 C 40.101562 -81.828125 39.671875 -81.285156 39.453125 -80.203125 C 39.335938 -79.984375 39.171875 -79.359375 38.953125 -78.328125 C 38.742188 -77.296875 38.554688 -76.289062 38.390625 -75.3125 C 38.234375 -74.34375 38.097656 -73.695312 37.984375 -73.375 C 37.765625 -72.40625 37.546875 -71.515625 37.328125 -70.703125 C 37.117188 -69.890625 36.90625 -68.992188 36.6875 -68.015625 C 36.6875 -67.691406 36.578125 -66.769531 36.359375 -65.25 C 36.148438 -63.738281 35.910156 -62.0625 35.640625 -60.21875 C 35.367188 -58.382812 35.125 -56.738281 34.90625 -55.28125 C 34.6875 -53.820312 34.578125 -52.925781 34.578125 -52.59375 C 34.578125 -50.101562 35.085938 -48.5625 36.109375 -47.96875 C 37.140625 -47.375 38.304688 -47.078125 39.609375 -47.078125 C 40.691406 -47.078125 41.988281 -47.320312 43.5 -47.8125 C 45.019531 -48.300781 45.78125 -50.003906 45.78125 -52.921875 Z M 45.78125 -52.921875 "/></g></g></g><g fill="#212121" fill-opacity="1"><g transform="translate(236.730225, 504.078595)"><g><path d="M 80.6875 -64.9375 C 80.6875 -63.425781 80.65625 -62.046875 80.59375 -60.796875 C 80.539062 -59.554688 80.515625 -58.125 80.515625 -56.5 C 80.515625 -54.757812 80.539062 -53.210938 80.59375 -51.859375 C 80.65625 -50.515625 80.628906 -48.921875 80.515625 -47.078125 C 80.515625 -45.453125 80.460938 -43.988281 80.359375 -42.6875 C 80.253906 -41.394531 80.203125 -39.9375 80.203125 -38.3125 C 80.203125 -36.144531 80.253906 -34.164062 80.359375 -32.375 C 80.460938 -30.59375 80.515625 -28.566406 80.515625 -26.296875 C 80.515625 -24.023438 80.488281 -21.96875 80.4375 -20.125 C 80.382812 -18.289062 80.359375 -16.179688 80.359375 -13.796875 L 80.359375 -9.09375 C 80.359375 -8.976562 80.300781 -8.351562 80.1875 -7.21875 C 80.082031 -6.082031 79.757812 -5.082031 79.21875 -4.21875 C 77.488281 -1.84375 74.320312 -0.300781 69.71875 0.40625 C 65.125 1.113281 60.066406 1.46875 54.546875 1.46875 C 51.085938 1.46875 48.164062 1.4375 45.78125 1.375 C 43.394531 1.320312 41.007812 1.023438 38.625 0.484375 C 36.25 -0.0546875 33.273438 -0.972656 29.703125 -2.265625 C 28.410156 -2.804688 26.925781 -3.457031 25.25 -4.21875 C 23.570312 -4.976562 22.082031 -5.898438 20.78125 -6.984375 C 19.050781 -8.492188 17.644531 -9.925781 16.5625 -11.28125 C 15.476562 -12.632812 14.34375 -14.175781 13.15625 -15.90625 C 11.207031 -18.71875 9.582031 -21.257812 8.28125 -23.53125 C 6.976562 -25.8125 5.921875 -28.46875 5.109375 -31.5 C 4.296875 -34.53125 3.617188 -38.585938 3.078125 -43.671875 C 2.972656 -44.859375 2.785156 -46.613281 2.515625 -48.9375 C 2.242188 -51.269531 2.109375 -54.003906 2.109375 -57.140625 C 2.109375 -59.203125 2.242188 -61.582031 2.515625 -64.28125 C 2.785156 -66.988281 3.132812 -69.613281 3.5625 -72.15625 C 4 -74.707031 4.351562 -76.820312 4.625 -78.5 C 4.894531 -80.175781 5.03125 -81.015625 5.03125 -81.015625 C 5.570312 -82.960938 6.164062 -84.71875 6.8125 -86.28125 C 7.46875 -87.851562 8.226562 -89.5625 9.09375 -91.40625 C 10.820312 -94.863281 12.175781 -97.242188 13.15625 -98.546875 C 14.125 -99.835938 16.097656 -101.863281 19.078125 -104.625 C 22.054688 -107.382812 25.382812 -109.632812 29.0625 -111.375 C 31.332031 -112.5625 33.6875 -113.425781 36.125 -113.96875 C 38.5625 -114.507812 40.914062 -114.992188 43.1875 -115.421875 C 46.425781 -115.960938 49.34375 -116.285156 51.9375 -116.390625 C 54.539062 -116.503906 56.382812 -116.5625 57.46875 -116.5625 L 59.09375 -116.5625 C 59.3125 -116.5625 60.125 -116.535156 61.53125 -116.484375 C 62.9375 -116.429688 64.53125 -116.375 66.3125 -116.3125 C 68.101562 -116.257812 69.726562 -116.207031 71.1875 -116.15625 C 72.644531 -116.101562 73.484375 -116.019531 73.703125 -115.90625 C 74.460938 -115.476562 75.164062 -114.910156 75.8125 -114.203125 C 76.457031 -113.503906 76.78125 -112.394531 76.78125 -110.875 C 76.78125 -110.125 76.753906 -109.421875 76.703125 -108.765625 C 76.648438 -108.117188 76.625 -107.363281 76.625 -106.5 L 76.625 -100.8125 C 76.625 -98.21875 76.625 -95.753906 76.625 -93.421875 C 76.625 -91.097656 76.410156 -89.554688 75.984375 -88.796875 C 75.546875 -88.148438 75.054688 -87.632812 74.515625 -87.25 C 73.972656 -86.875 73.59375 -86.578125 73.375 -86.359375 C 73.269531 -86.253906 72.890625 -86.066406 72.234375 -85.796875 C 71.585938 -85.523438 70.941406 -85.390625 70.296875 -85.390625 C 69.210938 -85.390625 68.238281 -85.660156 67.375 -86.203125 C 66.507812 -86.742188 65.476562 -87.175781 64.28125 -87.5 C 63.851562 -87.613281 62.9375 -87.722656 61.53125 -87.828125 C 60.125 -87.929688 58.742188 -88.007812 57.390625 -88.0625 C 56.035156 -88.125 55.085938 -88.15625 54.546875 -88.15625 C 50.003906 -88.15625 46.488281 -87.476562 44 -86.125 C 41.507812 -84.769531 39.453125 -82.796875 37.828125 -80.203125 C 37.390625 -79.660156 36.984375 -78.898438 36.609375 -77.921875 C 36.234375 -76.953125 35.9375 -76.195312 35.71875 -75.65625 C 35.601562 -75.21875 35.519531 -74.539062 35.46875 -73.625 C 35.414062 -72.707031 35.28125 -71.648438 35.0625 -70.453125 C 34.84375 -68.941406 34.570312 -67.644531 34.25 -66.5625 C 33.925781 -65.476562 33.679688 -64.234375 33.515625 -62.828125 C 33.359375 -61.421875 33.28125 -59.414062 33.28125 -56.8125 C 33.28125 -55.738281 33.304688 -54.6875 33.359375 -53.65625 C 33.410156 -52.625 33.4375 -51.515625 33.4375 -50.328125 L 33.4375 -48.703125 C 33.4375 -47.617188 33.488281 -46.804688 33.59375 -46.265625 C 33.707031 -45.722656 33.820312 -45.128906 33.9375 -44.484375 C 33.9375 -44.367188 34.175781 -43.6875 34.65625 -42.4375 C 35.144531 -41.195312 35.6875 -39.847656 36.28125 -38.390625 C 36.875 -36.929688 37.441406 -35.601562 37.984375 -34.40625 C 38.523438 -33.21875 38.851562 -32.519531 38.96875 -32.3125 C 39.175781 -31.976562 39.46875 -31.515625 39.84375 -30.921875 C 40.226562 -30.328125 40.800781 -29.707031 41.5625 -29.0625 C 42.320312 -28.519531 43.320312 -27.976562 44.5625 -27.4375 C 45.8125 -26.894531 47.242188 -26.625 48.859375 -26.625 C 52.867188 -26.625 54.875 -27.921875 54.875 -30.515625 C 54.875 -31.378906 54.816406 -32.164062 54.703125 -32.875 C 54.597656 -33.582031 54.546875 -34.3125 54.546875 -35.0625 C 54.546875 -36.257812 54.597656 -37.316406 54.703125 -38.234375 C 54.816406 -39.148438 54.875 -40.148438 54.875 -41.234375 C 54.875 -43.398438 54.140625 -44.859375 52.671875 -45.609375 C 51.210938 -46.367188 50.160156 -46.75 49.515625 -46.75 C 48.972656 -46.75 48.484375 -46.664062 48.046875 -46.5 C 47.617188 -46.34375 47.132812 -46.265625 46.59375 -46.265625 C 45.832031 -46.265625 44.992188 -46.671875 44.078125 -47.484375 C 43.160156 -48.296875 42.703125 -49.457031 42.703125 -50.96875 C 42.703125 -53.03125 42.726562 -54.875 42.78125 -56.5 C 42.832031 -58.125 42.910156 -59.960938 43.015625 -62.015625 C 43.015625 -63.097656 43.015625 -64.257812 43.015625 -65.5 C 43.015625 -66.75 43.070312 -67.425781 43.1875 -67.53125 C 43.1875 -67.644531 43.210938 -68 43.265625 -68.59375 C 43.316406 -69.1875 43.503906 -69.695312 43.828125 -70.125 C 44.367188 -71.101562 45.15625 -71.890625 46.1875 -72.484375 C 47.21875 -73.078125 48.597656 -73.375 50.328125 -73.375 C 51.953125 -73.375 53.382812 -73.316406 54.625 -73.203125 C 55.875 -73.097656 57.253906 -73.046875 58.765625 -73.046875 C 60.710938 -73.046875 62.441406 -73.046875 63.953125 -73.046875 C 65.472656 -73.046875 67.207031 -73.101562 69.15625 -73.21875 C 69.914062 -73.320312 70.566406 -73.398438 71.109375 -73.453125 C 71.648438 -73.515625 72.296875 -73.546875 73.046875 -73.546875 C 75.753906 -73.546875 77.625 -72.972656 78.65625 -71.828125 C 79.6875 -70.691406 80.28125 -69.445312 80.4375 -68.09375 C 80.601562 -66.75 80.6875 -65.695312 80.6875 -64.9375 Z M 80.6875 -64.9375 "/></g></g></g><g fill="#212121" fill-opacity="1"><g transform="translate(321.308309, 504.078595)"><g><path d="M 99.671875 -110.875 C 99.671875 -107.84375 99.507812 -105.132812 99.1875 -102.75 C 98.863281 -100.375 98.703125 -97.671875 98.703125 -94.640625 C 98.703125 -92.585938 98.726562 -90.691406 98.78125 -88.953125 C 98.84375 -87.222656 98.875 -85.28125 98.875 -83.125 C 98.875 -77.925781 98.816406 -73.242188 98.703125 -69.078125 C 98.597656 -64.910156 98.546875 -60.226562 98.546875 -55.03125 L 98.546875 -53.734375 C 98.546875 -51.359375 98.597656 -48.953125 98.703125 -46.515625 C 98.816406 -44.078125 98.875 -41.664062 98.875 -39.28125 C 98.875 -35.5 98.789062 -32.09375 98.625 -29.0625 C 98.457031 -26.03125 98.375 -22.617188 98.375 -18.828125 C 98.375 -16.660156 98.484375 -14.710938 98.703125 -12.984375 C 98.921875 -11.253906 99.03125 -9.304688 99.03125 -7.140625 C 99.03125 -4.648438 98.8125 -2.863281 98.375 -1.78125 C 97.945312 -0.695312 96.757812 -0.15625 94.8125 -0.15625 C 92.644531 -0.15625 90.691406 -0.238281 88.953125 -0.40625 C 87.222656 -0.570312 85.28125 -0.65625 83.125 -0.65625 C 81.601562 -0.65625 80.21875 -0.570312 78.96875 -0.40625 C 77.726562 -0.238281 76.351562 -0.15625 74.84375 -0.15625 C 72.238281 -0.15625 70.582031 -0.832031 69.875 -2.1875 C 69.175781 -3.539062 68.828125 -4.757812 68.828125 -5.84375 C 68.828125 -7.6875 68.9375 -9.335938 69.15625 -10.796875 C 69.375 -12.253906 69.484375 -13.847656 69.484375 -15.578125 L 69.484375 -19.96875 C 69.484375 -20.613281 69.507812 -21.207031 69.5625 -21.75 C 69.613281 -22.289062 69.640625 -22.890625 69.640625 -23.546875 C 69.640625 -24.617188 69.585938 -25.5625 69.484375 -26.375 C 69.378906 -27.1875 69.378906 -28.132812 69.484375 -29.21875 C 69.585938 -30.082031 69.691406 -30.894531 69.796875 -31.65625 C 69.910156 -32.414062 69.96875 -33.28125 69.96875 -34.25 C 69.96875 -36.09375 69.882812 -37.742188 69.71875 -39.203125 C 69.5625 -40.660156 69.484375 -42.257812 69.484375 -44 C 69.484375 -44.96875 69.507812 -45.832031 69.5625 -46.59375 C 69.613281 -47.351562 69.640625 -48.164062 69.640625 -49.03125 C 69.640625 -49.570312 69.613281 -50.003906 69.5625 -50.328125 C 69.507812 -50.648438 69.484375 -51.03125 69.484375 -51.46875 L 69.484375 -52.109375 C 69.484375 -52.648438 69.210938 -52.921875 68.671875 -52.921875 C 68.128906 -52.921875 67.5625 -52.269531 66.96875 -50.96875 C 66.375 -49.675781 65.882812 -48.351562 65.5 -47 C 65.125 -45.644531 64.882812 -44.859375 64.78125 -44.640625 C 64.78125 -44.640625 64.425781 -43.851562 63.71875 -42.28125 C 63.019531 -40.71875 62.207031 -38.960938 61.28125 -37.015625 C 60.363281 -35.066406 59.550781 -33.304688 58.84375 -31.734375 C 58.144531 -30.171875 57.796875 -29.390625 57.796875 -29.390625 C 57.472656 -28.953125 57.09375 -28.515625 56.65625 -28.078125 C 56.226562 -27.648438 55.523438 -27.4375 54.546875 -27.4375 C 54.222656 -27.4375 53.679688 -27.460938 52.921875 -27.515625 C 52.160156 -27.566406 51.617188 -27.703125 51.296875 -27.921875 C 50.328125 -28.566406 49.21875 -30.050781 47.96875 -32.375 C 46.726562 -34.707031 45.347656 -37.175781 43.828125 -39.78125 C 43.398438 -40.425781 43.019531 -41.019531 42.6875 -41.5625 C 42.363281 -42.101562 42.039062 -42.695312 41.71875 -43.34375 C 41.289062 -44.207031 40.941406 -44.988281 40.671875 -45.6875 C 40.398438 -46.394531 40.046875 -47.128906 39.609375 -47.890625 C 39.179688 -48.972656 38.585938 -50.191406 37.828125 -51.546875 C 37.066406 -52.898438 36.523438 -53.519531 36.203125 -53.40625 C 35.660156 -53.195312 35.390625 -52.550781 35.390625 -51.46875 L 35.390625 -50.484375 C 35.390625 -47.992188 35.304688 -45.75 35.140625 -43.75 C 34.984375 -41.75 34.90625 -39.503906 34.90625 -37.015625 C 34.90625 -35.609375 34.929688 -34.304688 34.984375 -33.109375 C 35.035156 -31.921875 35.0625 -30.570312 35.0625 -29.0625 C 34.957031 -27.21875 34.875 -25.535156 34.8125 -24.015625 C 34.757812 -22.503906 34.734375 -20.773438 34.734375 -18.828125 L 34.734375 -15.421875 C 34.734375 -13.691406 34.785156 -12.148438 34.890625 -10.796875 C 35.003906 -9.441406 35.0625 -7.898438 35.0625 -6.171875 C 35.0625 -3.460938 34.492188 -1.78125 33.359375 -1.125 C 32.222656 -0.476562 30.953125 -0.15625 29.546875 -0.15625 C 28.242188 -0.15625 27.078125 -0.179688 26.046875 -0.234375 C 25.023438 -0.296875 23.863281 -0.328125 22.5625 -0.328125 C 21.15625 -0.328125 19.910156 -0.328125 18.828125 -0.328125 C 17.742188 -0.328125 16.5 -0.269531 15.09375 -0.15625 C 14.445312 -0.15625 13.851562 -0.101562 13.3125 0 C 12.769531 0.101562 12.175781 0.15625 11.53125 0.15625 C 8.601562 0.15625 6.921875 -0.597656 6.484375 -2.109375 C 6.054688 -3.628906 5.84375 -4.925781 5.84375 -6 C 5.84375 -7.300781 5.867188 -8.46875 5.921875 -9.5 C 5.972656 -10.53125 6.054688 -11.691406 6.171875 -12.984375 C 6.273438 -14.828125 6.351562 -16.453125 6.40625 -17.859375 C 6.46875 -19.265625 6.5 -20.832031 6.5 -22.5625 C 6.5 -26.457031 6.390625 -30 6.171875 -33.1875 C 5.953125 -36.382812 5.84375 -39.929688 5.84375 -43.828125 C 5.84375 -47.835938 5.921875 -51.410156 6.078125 -54.546875 C 6.242188 -57.679688 6.328125 -61.195312 6.328125 -65.09375 C 6.328125 -68.882812 6.269531 -72.296875 6.15625 -75.328125 C 6.050781 -78.359375 6 -81.769531 6 -85.5625 C 6 -87.394531 6.050781 -89.015625 6.15625 -90.421875 C 6.269531 -91.828125 6.328125 -93.398438 6.328125 -95.140625 C 6.441406 -97.953125 6.332031 -100.492188 6 -102.765625 C 5.675781 -105.035156 5.515625 -107.632812 5.515625 -110.5625 C 5.515625 -112.289062 5.945312 -113.453125 6.8125 -114.046875 C 7.675781 -114.640625 8.566406 -114.960938 9.484375 -115.015625 C 10.410156 -115.078125 11.035156 -115.109375 11.359375 -115.109375 C 13.847656 -115.109375 16.039062 -115.078125 17.9375 -115.015625 C 19.832031 -114.960938 21.96875 -114.9375 24.34375 -114.9375 C 25.425781 -114.9375 26.347656 -114.960938 27.109375 -115.015625 C 27.867188 -115.078125 28.789062 -115.109375 29.875 -115.109375 C 31.820312 -115.109375 33.203125 -114.726562 34.015625 -113.96875 C 34.828125 -113.207031 35.503906 -112.039062 36.046875 -110.46875 C 36.585938 -108.90625 37.34375 -106.988281 38.3125 -104.71875 C 39.5 -102.007812 40.710938 -99.625 41.953125 -97.5625 C 43.203125 -95.507812 44.53125 -93.238281 45.9375 -90.75 C 46.59375 -89.664062 47.109375 -88.660156 47.484375 -87.734375 C 47.859375 -86.816406 48.316406 -85.765625 48.859375 -84.578125 C 48.972656 -84.359375 49.269531 -83.734375 49.75 -82.703125 C 50.238281 -81.679688 50.804688 -80.707031 51.453125 -79.78125 C 52.109375 -78.863281 52.65625 -78.40625 53.09375 -78.40625 C 53.625 -78.40625 54.210938 -78.945312 54.859375 -80.03125 C 55.515625 -81.113281 56.085938 -82.25 56.578125 -83.4375 C 57.066406 -84.632812 57.363281 -85.34375 57.46875 -85.5625 C 58.332031 -87.175781 59.113281 -88.601562 59.8125 -89.84375 C 60.519531 -91.09375 61.253906 -92.585938 62.015625 -94.328125 C 62.773438 -96.054688 63.394531 -97.625 63.875 -99.03125 C 64.363281 -100.4375 64.988281 -102.003906 65.75 -103.734375 C 65.75 -103.847656 66.125 -104.660156 66.875 -106.171875 C 67.632812 -107.691406 68.421875 -109.207031 69.234375 -110.71875 C 70.046875 -112.226562 70.453125 -112.984375 70.453125 -112.984375 C 70.992188 -113.523438 71.289062 -113.847656 71.34375 -113.953125 C 71.40625 -114.066406 71.8125 -114.34375 72.5625 -114.78125 C 72.675781 -114.882812 73.378906 -114.988281 74.671875 -115.09375 C 75.972656 -115.207031 77.113281 -115.265625 78.09375 -115.265625 C 79.707031 -115.265625 81.164062 -115.207031 82.46875 -115.09375 C 83.769531 -114.988281 85.234375 -114.9375 86.859375 -114.9375 C 88.585938 -114.9375 90.097656 -114.988281 91.390625 -115.09375 C 92.691406 -115.207031 94.207031 -115.265625 95.9375 -115.265625 C 97.351562 -115.265625 98.328125 -114.832031 98.859375 -113.96875 C 99.398438 -113.101562 99.671875 -112.070312 99.671875 -110.875 Z M 99.671875 -110.875 "/></g></g></g><g fill="#212121" fill-opacity="1"><g transform="translate(426.178626, 504.078595)"><g><path d="M 66.078125 -33.9375 C 66.078125 -26.789062 65.425781 -21.210938 64.125 -17.203125 C 62.820312 -13.203125 60.171875 -9.578125 56.171875 -6.328125 C 54.441406 -4.921875 52.570312 -3.703125 50.5625 -2.671875 C 48.5625 -1.648438 46.695312 -0.867188 44.96875 -0.328125 C 43.34375 0.109375 41.3125 0.488281 38.875 0.8125 C 36.445312 1.132812 34.015625 1.347656 31.578125 1.453125 C 29.140625 1.566406 27.109375 1.625 25.484375 1.625 C 24.515625 1.625 23.023438 1.566406 21.015625 1.453125 C 19.015625 1.347656 16.851562 1.101562 14.53125 0.71875 C 12.207031 0.34375 10.039062 -0.164062 8.03125 -0.8125 C 6.03125 -1.457031 4.597656 -2.320312 3.734375 -3.40625 C 2.972656 -4.382812 2.59375 -5.738281 2.59375 -7.46875 C 2.59375 -9.3125 2.644531 -10.9375 2.75 -12.34375 C 2.863281 -13.75 2.921875 -15.316406 2.921875 -17.046875 C 2.921875 -18.453125 2.863281 -19.664062 2.75 -20.6875 C 2.644531 -21.71875 2.59375 -22.9375 2.59375 -24.34375 C 2.59375 -24.882812 2.671875 -25.804688 2.828125 -27.109375 C 2.992188 -28.410156 3.535156 -29.601562 4.453125 -30.6875 C 5.378906 -31.769531 6.976562 -32.253906 9.25 -32.140625 C 10.769531 -32.035156 11.851562 -31.816406 12.5 -31.484375 C 13.144531 -31.160156 13.898438 -30.734375 14.765625 -30.203125 C 14.984375 -30.085938 15.144531 -29.945312 15.25 -29.78125 C 15.363281 -29.625 15.53125 -29.4375 15.75 -29.21875 C 16.175781 -29 16.523438 -28.726562 16.796875 -28.40625 C 17.066406 -28.082031 17.421875 -27.8125 17.859375 -27.59375 C 18.941406 -26.945312 20.238281 -26.515625 21.75 -26.296875 C 23.269531 -26.078125 24.570312 -25.96875 25.65625 -25.96875 C 31.601562 -25.96875 34.738281 -27.753906 35.0625 -31.328125 C 35.28125 -33.929688 34.253906 -36.34375 31.984375 -38.5625 C 29.710938 -40.78125 27.546875 -42.804688 25.484375 -44.640625 C 24.078125 -46.046875 22.832031 -47.34375 21.75 -48.53125 C 20.664062 -49.726562 19.367188 -51.03125 17.859375 -52.4375 C 17.421875 -52.875 16.5 -53.710938 15.09375 -54.953125 C 13.6875 -56.191406 12.28125 -57.625 10.875 -59.25 C 7.519531 -63.363281 5.488281 -67.125 4.78125 -70.53125 C 4.082031 -73.945312 3.734375 -77.710938 3.734375 -81.828125 C 3.734375 -94.054688 6.597656 -102.847656 12.328125 -108.203125 C 18.066406 -113.554688 26.78125 -116.234375 38.46875 -116.234375 C 42.039062 -116.234375 45.554688 -116.175781 49.015625 -116.0625 C 52.484375 -115.957031 55.351562 -115.414062 57.625 -114.4375 C 59.90625 -113.46875 61.046875 -111.6875 61.046875 -109.09375 C 61.046875 -107.363281 60.988281 -105.796875 60.875 -104.390625 C 60.769531 -102.984375 60.71875 -101.359375 60.71875 -99.515625 L 60.71875 -98.875 C 60.71875 -97.789062 60.742188 -96.8125 60.796875 -95.9375 C 60.847656 -95.070312 60.875 -94.046875 60.875 -92.859375 C 60.875 -92.316406 60.765625 -91.503906 60.546875 -90.421875 C 60.335938 -89.335938 59.828125 -88.335938 59.015625 -87.421875 C 58.203125 -86.503906 56.765625 -86.046875 54.703125 -86.046875 C 53.410156 -86.046875 52.0625 -86.257812 50.65625 -86.6875 C 49.25 -87.125 48.378906 -87.394531 48.046875 -87.5 C 47.296875 -87.71875 46.40625 -87.9375 45.375 -88.15625 C 44.34375 -88.375 43.015625 -88.484375 41.390625 -88.484375 C 41.066406 -88.484375 40.335938 -88.425781 39.203125 -88.3125 C 38.066406 -88.207031 36.957031 -87.75 35.875 -86.9375 C 34.789062 -86.125 34.25 -84.691406 34.25 -82.640625 C 34.25 -80.898438 34.738281 -79.273438 35.71875 -77.765625 C 36.257812 -76.898438 37.988281 -75.113281 40.90625 -72.40625 C 43.832031 -69.695312 46.863281 -66.828125 50 -63.796875 C 51.1875 -62.710938 52.320312 -61.679688 53.40625 -60.703125 C 54.488281 -59.734375 55.570312 -58.601562 56.65625 -57.3125 C 60.550781 -52.976562 63.09375 -49.101562 64.28125 -45.6875 C 65.476562 -42.28125 66.078125 -38.363281 66.078125 -33.9375 Z M 66.078125 -33.9375 "/></g></g></g></svg>